<?xml version="1.0" encoding="UTF-8"?>
<!DOCTYPE svg PUBLIC "-//W3C//DTD SVG 1.1//EN" "http://www.w3.org/Graphics/SVG/1.1/DTD/svg11.dtd">
<svg xmlns="http://www.w3.org/2000/svg" version="1.1" width="1089px" height="165px" style="shape-rendering:geometricPrecision; text-rendering:geometricPrecision; image-rendering:optimizeQuality; fill-rule:evenodd; clip-rule:evenodd" xmlns:xlink="http://www.w3.org/1999/xlink">
<g><path style="opacity:0.712" fill="#ecd65a" d="M 145.5,27.5 C 146.292,29.7448 147.625,30.0781 149.5,28.5C 150.5,28.5 151.5,28.5 152.5,28.5C 151.496,29.6828 150.662,31.0161 150,32.5C 149.692,31.6919 149.192,31.0253 148.5,30.5C 147.205,31.0983 145.872,31.5983 144.5,32C 145.756,32.4169 146.423,33.2502 146.5,34.5C 141.496,34.8893 136.496,35.3893 131.5,36C 126.297,37.8407 120.964,39.174 115.5,40C 114.74,41.4411 114.074,42.9411 113.5,44.5C 116.161,68.1086 118.494,91.7752 120.5,115.5C 119.726,120.321 118.059,124.821 115.5,129C 121.078,130.129 126.078,132.296 130.5,135.5C 128.972,135.517 128.472,136.184 129,137.5C 129.671,136.748 130.504,136.414 131.5,136.5C 134.061,138.64 136.395,140.973 138.5,143.5C 137.833,144.5 137.167,145.5 136.5,146.5C 137.496,146.586 138.329,146.252 139,145.5C 139.464,146.094 139.631,146.761 139.5,147.5C 140.167,148.5 140.833,149.5 141.5,150.5C 139.302,152.397 136.636,153.397 133.5,153.5C 132.391,154.29 131.058,154.79 129.5,155C 115.5,155.667 101.5,155.667 87.5,155C 82.9708,154.332 78.8041,152.832 75,150.5C 74.3333,148.833 74.3333,147.167 75,145.5C 79.4668,142.035 83.6334,138.202 87.5,134C 91.635,131.678 95.9683,129.845 100.5,128.5C 98.8304,124.495 97.1637,120.495 95.5,116.5C 97.7426,96.8485 99.9093,77.1818 102,57.5C 102.788,51.7805 102.621,46.1138 101.5,40.5C 86.8749,35.1299 71.8749,33.6299 56.5,36C 50.3854,36.439 47.552,39.6057 48,45.5C 56.7753,63.2814 65.1086,81.2814 73,99.5C 74.3369,101.004 76.0036,102.004 78,102.5C 78.6667,103.833 78.6667,105.167 78,106.5C 56.4731,127.915 34.1398,128.915 11,109.5C 8.97707,107.231 8.14374,104.564 8.5,101.5C 10.1439,101.714 11.6439,101.38 13,100.5C 21.4613,81.0949 30.2947,61.9282 39.5,43C 34.8921,37.4797 35.7255,32.9797 42,29.5C 44.949,29.6472 47.6157,30.9806 50,33.5C 65.8427,26.0389 82.176,24.7055 99,29.5C 100.262,22.0471 103.262,15.3805 108,9.5C 113.7,15.2225 116.867,21.8892 117.5,29.5C 126.674,26.51 136.007,25.8433 145.5,27.5 Z M 45.5,52.5 C 53.2287,68.4573 60.8954,84.624 68.5,101C 60.8406,101.5 53.1739,101.666 45.5,101.5C 45.5,85.1667 45.5,68.8333 45.5,52.5 Z M 39.5,53.5 C 40.4964,69.3246 40.8297,85.3246 40.5,101.5C 32.8261,101.666 25.1594,101.5 17.5,101C 25.4681,85.5101 32.8014,69.6768 39.5,53.5 Z M 104.5,74.5 C 105.662,91.3283 105.828,108.328 105,125.5C 103.262,122.131 102.095,118.631 101.5,115C 103.356,101.56 104.356,88.0604 104.5,74.5 Z M 111.5,80.5 C 112.616,92.9226 113.949,105.423 115.5,118C 113.683,119.8 112.516,121.966 112,124.5C 111.5,109.837 111.333,95.1705 111.5,80.5 Z"/></g>
<g><path style="opacity:0.195" fill="#ebd65e" d="M 145.5,27.5 C 147.099,27.2322 148.432,27.5655 149.5,28.5C 147.625,30.0781 146.292,29.7448 145.5,27.5 Z"/></g>
<g><path style="opacity:0.69" fill="#ebd65e" d="M 152.5,28.5 C 157.129,29.2717 161.796,30.9384 166.5,33.5C 172.28,27.471 176.947,28.471 180.5,36.5C 180.196,38.4405 179.363,40.1072 178,41.5C 177.333,42.8333 177.333,44.1667 178,45.5C 186.969,63.5519 195.469,81.8852 203.5,100.5C 205.045,101.452 206.712,101.785 208.5,101.5C 208.66,103.199 208.494,104.866 208,106.5C 191.45,124.237 172.283,127.737 150.5,117C 148.093,114.817 145.76,112.65 143.5,110.5C 144.953,109.175 144.619,108.342 142.5,108C 145.279,107.851 145.779,107.017 144,105.5C 142.612,105.214 141.112,105.548 139.5,106.5C 138.733,105.828 138.066,104.995 137.5,104C 137.728,103.601 138.062,103.435 138.5,103.5C 139.825,102.047 140.658,102.381 141,104.5C 142.214,102.951 143.714,101.785 145.5,101C 144.906,100.536 144.239,100.369 143.5,100.5C 143.5,100.167 143.5,99.8333 143.5,99.5C 144.873,99.6567 146.207,99.49 147.5,99C 148.696,98.3457 148.696,97.8457 147.5,97.5C 146.583,98.1272 145.583,98.4606 144.5,98.5C 152.538,79.9322 160.871,61.4322 169.5,43C 167.01,38.247 163.01,35.747 157.5,35.5C 156.354,33.3328 154.521,31.9995 152,31.5C 151.487,32.5266 150.987,33.5266 150.5,34.5C 149.167,34.5 147.833,34.5 146.5,34.5C 146.423,33.2502 145.756,32.4169 144.5,32C 145.872,31.5983 147.205,31.0983 148.5,30.5C 149.192,31.0253 149.692,31.6919 150,32.5C 150.662,31.0161 151.496,29.6828 152.5,28.5 Z M 170.5,51.5 C 171.497,67.9916 171.83,84.6583 171.5,101.5C 163.493,101.666 155.493,101.5 147.5,101C 155.838,84.8239 163.504,68.3239 170.5,51.5 Z M 175.5,51.5 C 183.049,67.946 190.716,84.446 198.5,101C 190.841,101.5 183.174,101.666 175.5,101.5C 175.5,84.8333 175.5,68.1667 175.5,51.5 Z"/></g>
<g><path style="opacity:0.714" fill="#ebd65d" d="M 157.5,35.5 C 155.05,35.702 152.717,35.3686 150.5,34.5C 150.987,33.5266 151.487,32.5266 152,31.5C 154.521,31.9995 156.354,33.3328 157.5,35.5 Z"/></g>
<g><path style="opacity:0.852" fill="#ead662" d="M 275.5,111.5 C 276.598,112.397 276.598,113.23 275.5,114C 277.758,115.753 279.425,117.919 280.5,120.5C 269.167,120.5 257.833,120.5 246.5,120.5C 246.5,101.5 246.5,82.5 246.5,63.5C 249.833,63.5 253.167,63.5 256.5,63.5C 256.5,79.5 256.5,95.5 256.5,111.5C 262.833,111.5 269.167,111.5 275.5,111.5 Z"/></g>
<g><path style="opacity:0.871" fill="#ead665" d="M 309.5,63.5 C 329.833,63.5 350.167,63.5 370.5,63.5C 370.5,66.5 370.5,69.5 370.5,72.5C 353.5,72.5 336.5,72.5 319.5,72.5C 319.5,85.5 319.5,98.5 319.5,111.5C 336.5,111.5 353.5,111.5 370.5,111.5C 370.5,114.5 370.5,117.5 370.5,120.5C 350.167,120.5 329.833,120.5 309.5,120.5C 309.5,101.5 309.5,82.5 309.5,63.5 Z"/></g>
<g><path style="opacity:0.882" fill="#e9d668" d="M 373.5,64.5 C 377.646,63.353 381.98,63.1864 386.5,64C 404.5,82.6667 422.5,101.333 440.5,120C 436.5,120.667 432.5,120.667 428.5,120C 421.333,112.833 414.167,105.667 407,98.5C 399.802,105.364 392.968,112.53 386.5,120C 382.167,120.667 377.833,120.667 373.5,120C 382.681,110.986 391.681,101.819 400.5,92.5C 391.944,82.7077 382.944,73.3743 373.5,64.5 Z"/></g>
<g><path style="opacity:0.831" fill="#e9d669" d="M 428.5,63.5 C 432.514,63.3345 436.514,63.5012 440.5,64C 432.864,72.6367 424.864,80.97 416.5,89C 413.72,89.2692 411.554,88.1025 410,85.5C 409.333,84.5 409.333,83.5 410,82.5C 416.369,76.2981 422.536,69.9648 428.5,63.5 Z"/></g>
<g><path style="opacity:0.866" fill="#e8d76d" d="M 497.5,63.5 C 512.833,63.5 528.167,63.5 543.5,63.5C 543.5,82.5 543.5,101.5 543.5,120.5C 540.167,120.5 536.833,120.5 533.5,120.5C 533.5,115.167 533.5,109.833 533.5,104.5C 518.5,104.5 503.5,104.5 488.5,104.5C 488.5,101.5 488.5,98.5 488.5,95.5C 503.5,95.5 518.5,95.5 533.5,95.5C 533.5,87.8333 533.5,80.1667 533.5,72.5C 522.162,72.3335 510.828,72.5001 499.5,73C 493,75.5 488.5,80 486,86.5C 485.5,97.8284 485.333,109.162 485.5,120.5C 482.167,120.5 478.833,120.5 475.5,120.5C 475.334,110.161 475.5,99.828 476,89.5C 477.776,76.237 484.942,67.5703 497.5,63.5 Z"/></g>
<g><path style="opacity:0.889" fill="#e8d76f" d="M 588.5,63.5 C 588.577,64.7498 589.244,65.5831 590.5,66C 590.167,66.3333 589.833,66.6667 589.5,67C 590.609,67.6377 591.775,68.1377 593,68.5C 594.011,68.1081 594.511,67.4415 594.5,66.5C 595.5,66.8333 596.167,67.5 596.5,68.5C 594.799,69.8347 593.132,71.168 591.5,72.5C 583.16,72.3336 574.827,72.5003 566.5,73C 561.192,77.4294 561.192,81.7627 566.5,86C 574.429,87.3633 582.429,87.8633 590.5,87.5C 590.804,88.1499 591.137,88.8165 591.5,89.5C 590.758,91.3497 589.758,92.0164 588.5,91.5C 589.381,92.9705 590.714,93.8038 592.5,94C 591.244,94.4169 590.577,95.2502 590.5,96.5C 589.5,96.5 588.5,96.5 587.5,96.5C 586.413,93.1163 584.413,92.283 581.5,94C 582.252,94.6708 582.586,95.5041 582.5,96.5C 574.501,97.2179 566.834,96.0512 559.5,93C 552.931,86.0554 551.764,78.2221 556,69.5C 558.234,67.3002 560.734,65.4669 563.5,64C 571.827,63.5003 580.16,63.3336 588.5,63.5 Z"/></g>
<g><path style="opacity:0.877" fill="#e7d771" d="M 588.5,63.5 C 597.833,63.5 607.167,63.5 616.5,63.5C 616.5,66.5 616.5,69.5 616.5,72.5C 608.167,72.5 599.833,72.5 591.5,72.5C 593.132,71.168 594.799,69.8347 596.5,68.5C 596.167,67.5 595.5,66.8333 594.5,66.5C 594.511,67.4415 594.011,68.1081 593,68.5C 591.775,68.1377 590.609,67.6377 589.5,67C 589.833,66.6667 590.167,66.3333 590.5,66C 589.244,65.5831 588.577,64.7498 588.5,63.5 Z"/></g>
<g><path style="opacity:0.904" fill="#e7d772" d="M 650.5,63.5 C 649.086,65.1385 649.42,66.4718 651.5,67.5C 650.478,68.354 649.645,69.354 649,70.5C 647.923,67.2113 646.09,66.7113 643.5,69C 644.337,70.0113 644.67,71.1779 644.5,72.5C 637.859,72.6389 635.026,75.9722 636,82.5C 636.792,84.6437 638.292,85.977 640.5,86.5C 640.5,87.1667 640.5,87.8333 640.5,88.5C 638.908,87.3984 638.075,88.065 638,90.5C 637.667,90.1667 637.333,89.8333 637,89.5C 635.777,91.9853 634.277,92.152 632.5,90C 633.337,88.9887 633.67,87.8221 633.5,86.5C 630.402,86.4125 630.068,86.9125 632.5,88C 631.934,88.9947 631.267,89.828 630.5,90.5C 627.246,87.6368 625.913,83.9702 626.5,79.5C 626.18,71.9735 629.513,66.8068 636.5,64C 641.155,63.5008 645.821,63.3342 650.5,63.5 Z"/></g>
<g><path style="opacity:0.869" fill="#e7d774" d="M 671.5,63.5 C 677.5,63.5 683.5,63.5 689.5,63.5C 689.5,66.5 689.5,69.5 689.5,72.5C 681.833,72.5 674.167,72.5 666.5,72.5C 666.67,71.1779 666.337,70.0113 665.5,69C 666.766,68.6905 667.933,68.1905 669,67.5C 670,67.8333 671,68.1667 672,68.5C 672.167,68.1667 672.333,67.8333 672.5,67.5C 671.5,66.8333 670.5,66.1667 669.5,65.5C 669.846,64.3044 670.346,64.3044 671,65.5C 671.464,64.9056 671.631,64.2389 671.5,63.5 Z"/></g>
<g><path style="opacity:0.822" fill="#e7d775" d="M 701.5,63.5 C 704.833,63.5 708.167,63.5 711.5,63.5C 711.5,82.5 711.5,101.5 711.5,120.5C 708.167,120.5 704.833,120.5 701.5,120.5C 701.5,101.5 701.5,82.5 701.5,63.5 Z"/></g>
<g><path style="opacity:0.85" fill="#e6d776" d="M 732.5,63.5 C 733.411,65.9512 734.244,68.2846 735,70.5C 733.028,69.6948 731.528,68.3615 730.5,66.5C 729.289,67.2739 729.289,68.1072 730.5,69C 729.376,69.2492 728.376,69.7492 727.5,70.5C 728.472,72.7035 730.139,74.0368 732.5,74.5C 729.497,79.1507 730.164,83.1507 734.5,86.5C 731.723,88.844 729.056,90.5107 726.5,91.5C 724.292,90.1064 722.792,88.1064 722,85.5C 719.37,75.096 722.87,67.7627 732.5,63.5 Z"/></g>
<g><path style="opacity:0.889" fill="#e6d777" d="M 732.5,63.5 C 749.833,63.5 767.167,63.5 784.5,63.5C 784.5,66.5 784.5,69.5 784.5,72.5C 767.83,72.3334 751.163,72.5001 734.5,73C 733.956,73.7172 733.289,74.2172 732.5,74.5C 730.139,74.0368 728.472,72.7035 727.5,70.5C 728.376,69.7492 729.376,69.2492 730.5,69C 729.289,68.1072 729.289,67.2739 730.5,66.5C 731.528,68.3615 733.028,69.6948 735,70.5C 734.244,68.2846 733.411,65.9512 732.5,63.5 Z"/></g>
<g><path style="opacity:0.859" fill="#e6d77a" d="M 790.5,63.5 C 813.167,63.5 835.833,63.5 858.5,63.5C 858.5,66.5 858.5,69.5 858.5,72.5C 848.833,72.5 839.167,72.5 829.5,72.5C 829.5,88.5 829.5,104.5 829.5,120.5C 826.167,120.5 822.833,120.5 819.5,120.5C 819.5,104.5 819.5,88.5 819.5,72.5C 809.833,72.5 800.167,72.5 790.5,72.5C 790.5,69.5 790.5,66.5 790.5,63.5 Z"/></g>
<g><path style="opacity:0.877" fill="#e5d77e" d="M 871.5,83.5 C 870.833,83.5 870.167,83.5 869.5,83.5C 869.5,83.1667 869.5,82.8333 869.5,82.5C 865.682,81.0514 866.016,79.8847 870.5,79C 868.414,78.6847 866.414,78.1847 864.5,77.5C 864.5,76.8333 864.833,76.5 865.5,76.5C 866.117,76.6107 866.617,76.944 867,77.5C 868.009,75.9751 868.509,74.3084 868.5,72.5C 872.335,68.4106 877.002,65.5772 882.5,64C 897.83,63.5001 913.163,63.3334 928.5,63.5C 928.5,82.5 928.5,101.5 928.5,120.5C 925.167,120.5 921.833,120.5 918.5,120.5C 918.5,115.167 918.5,109.833 918.5,104.5C 903.5,104.5 888.5,104.5 873.5,104.5C 873.5,101.5 873.5,98.5 873.5,95.5C 888.5,95.5 903.5,95.5 918.5,95.5C 918.5,87.8333 918.5,80.1667 918.5,72.5C 907.162,72.3335 895.828,72.5001 884.5,73C 879.107,75.2295 874.774,78.7295 871.5,83.5 Z"/></g>
<g><path style="opacity:0.87" fill="#e4d781" d="M 940.5,63.5 C 964.208,63.9363 982.708,73.9363 996,93.5C 996.5,83.5056 996.666,73.5056 996.5,63.5C 999.5,63.5 1002.5,63.5 1005.5,63.5C 1005.5,82.5 1005.5,101.5 1005.5,120.5C 1002.5,120.5 999.5,120.5 996.5,120.5C 993.609,103.236 984.609,90.0695 969.5,81C 963.573,77.366 957.24,74.866 950.5,73.5C 950.5,89.1667 950.5,104.833 950.5,120.5C 947.167,120.5 943.833,120.5 940.5,120.5C 940.5,101.5 940.5,82.5 940.5,63.5 Z"/></g>
<g><path style="opacity:0.846" fill="#e4d782" d="M 1031.5,63.5 C 1031.61,65.6477 1030.94,65.981 1029.5,64.5C 1028.57,65.3569 1027.91,66.3569 1027.5,67.5C 1026.67,68.3285 1027,69.1618 1028.5,70C 1027.4,70.7697 1027.4,71.603 1028.5,72.5C 1022.83,72.5 1017.17,72.5 1011.5,72.5C 1011.5,69.5 1011.5,66.5 1011.5,63.5C 1018.17,63.5 1024.83,63.5 1031.5,63.5 Z"/></g>
<g><path style="opacity:0.856" fill="#e4d784" d="M 1031.5,63.5 C 1031.83,63.5 1032.17,63.5 1032.5,63.5C 1033.07,65.0783 1034.07,66.4116 1035.5,67.5C 1035.83,67.1667 1036.17,66.8333 1036.5,66.5C 1035.81,65.4822 1035.14,64.4822 1034.5,63.5C 1049.5,63.5 1064.5,63.5 1079.5,63.5C 1079.5,66.5 1079.5,69.5 1079.5,72.5C 1069.83,72.5 1060.17,72.5 1050.5,72.5C 1050.5,88.5 1050.5,104.5 1050.5,120.5C 1047.17,120.5 1043.83,120.5 1040.5,120.5C 1040.5,104.5 1040.5,88.5 1040.5,72.5C 1038.17,72.5 1035.83,72.5 1033.5,72.5C 1034.4,71.8423 1035.4,71.1757 1036.5,70.5C 1034.25,66.8607 1031.25,65.8607 1027.5,67.5C 1027.91,66.3569 1028.57,65.3569 1029.5,64.5C 1030.94,65.981 1031.61,65.6477 1031.5,63.5 Z"/></g>
<g><path style="opacity:1" fill="#e4d783" d="M 1032.5,63.5 C 1033.17,63.5 1033.83,63.5 1034.5,63.5C 1035.14,64.4822 1035.81,65.4822 1036.5,66.5C 1036.17,66.8333 1035.83,67.1667 1035.5,67.5C 1034.07,66.4116 1033.07,65.0783 1032.5,63.5 Z"/></g>
<g><path style="opacity:1" fill="#e7d773" d="M 650.5,63.5 C 657.5,63.5 664.5,63.5 671.5,63.5C 671.631,64.2389 671.464,64.9056 671,65.5C 670.346,64.3044 669.846,64.3044 669.5,65.5C 670.5,66.1667 671.5,66.8333 672.5,67.5C 672.333,67.8333 672.167,68.1667 672,68.5C 671,68.1667 670,67.8333 669,67.5C 667.933,68.1905 666.766,68.6905 665.5,69C 666.337,70.0113 666.67,71.1779 666.5,72.5C 659.167,72.5 651.833,72.5 644.5,72.5C 644.67,71.1779 644.337,70.0113 643.5,69C 646.09,66.7113 647.923,67.2113 649,70.5C 649.645,69.354 650.478,68.354 651.5,67.5C 649.42,66.4718 649.086,65.1385 650.5,63.5 Z"/></g>
<g><path style="opacity:0.918" fill="#e4d783" d="M 1033.5,72.5 C 1031.83,72.5 1030.17,72.5 1028.5,72.5C 1027.4,71.603 1027.4,70.7697 1028.5,70C 1027,69.1618 1026.67,68.3285 1027.5,67.5C 1031.25,65.8607 1034.25,66.8607 1036.5,70.5C 1035.4,71.1757 1034.4,71.8423 1033.5,72.5 Z"/></g>
<g><path style="opacity:0.61" fill="#e5d77c" d="M 868.5,72.5 C 868.509,74.3084 868.009,75.9751 867,77.5C 866.617,76.944 866.117,76.6107 865.5,76.5C 866.512,75.1283 867.512,73.795 868.5,72.5 Z"/></g>
<g><path style="opacity:1" fill="#e5d77c" d="M 869.5,82.5 C 868.632,80.1081 869.299,79.9414 871.5,82C 870.906,82.4643 870.239,82.631 869.5,82.5 Z"/></g>
<g><path style="opacity:0.935" fill="#e5d77c" d="M 869.5,83.5 C 870.167,83.5 870.833,83.5 871.5,83.5C 870.637,89.4549 870.303,95.4549 870.5,101.5C 869.624,101.631 868.957,101.298 868.5,100.5C 869.428,99.2322 869.595,97.8989 869,96.5C 867.817,97.731 866.651,97.731 865.5,96.5C 866.592,95.1691 867.926,94.3357 869.5,94C 867.519,92.3688 865.519,92.5354 863.5,94.5C 862.692,94.1924 862.025,93.6924 861.5,93C 862.833,91.6667 864.167,90.3333 865.5,89C 864.044,88.5774 863.544,87.7441 864,86.5C 865.364,87.2583 866.531,86.7583 867.5,85C 867.167,84.6667 866.833,84.3333 866.5,84C 867.448,83.5172 868.448,83.3505 869.5,83.5 Z"/></g>
<g><path style="opacity:0.916" fill="#e7d773" d="M 640.5,86.5 C 646.121,87.3537 651.788,87.687 657.5,87.5C 655.111,88.0537 653.445,89.5537 652.5,92C 654.387,92.1626 655.887,91.3293 657,89.5C 657.333,90.8333 657.667,92.1667 658,93.5C 658.914,92.3463 659.747,92.513 660.5,94C 658.676,96.0815 657.009,95.9148 655.5,93.5C 654.145,94.1882 653.145,95.1882 652.5,96.5C 646.676,96.7899 641.009,96.1232 635.5,94.5C 636.641,92.9124 638.141,91.5791 640,90.5C 641.229,92.9468 642.729,93.1135 644.5,91C 642.934,90.3918 641.6,89.5585 640.5,88.5C 640.5,87.8333 640.5,87.1667 640.5,86.5 Z"/></g>
<g><path style="opacity:0.886" fill="#e6d778" d="M 734.5,86.5 C 748.809,87.2645 763.142,87.7645 777.5,88C 788.513,94.3765 791.013,103.21 785,114.5C 783.062,117.106 780.562,118.939 777.5,120C 760.503,120.5 743.503,120.667 726.5,120.5C 726.33,119.178 726.663,118.011 727.5,117C 725.321,116.558 724.655,115.558 725.5,114C 723.983,112.221 723.149,112.721 723,115.5C 722.617,114.944 722.117,114.611 721.5,114.5C 721.5,113.5 721.5,112.5 721.5,111.5C 739.17,111.667 756.836,111.5 774.5,111C 779.331,107.533 780.165,103.366 777,98.5C 776.25,97.8742 775.416,97.3742 774.5,97C 761.833,96.6667 749.167,96.3333 736.5,96C 732.475,95.8172 729.142,94.3172 726.5,91.5C 729.056,90.5107 731.723,88.844 734.5,86.5 Z"/></g>
<g><path style="opacity:0.88" fill="#ead666" d="M 322.5,87.5 C 336.167,87.5 349.833,87.5 363.5,87.5C 363.5,90.5 363.5,93.5 363.5,96.5C 349.833,96.5 336.167,96.5 322.5,96.5C 322.5,93.5 322.5,90.5 322.5,87.5 Z"/></g>
<g><path style="opacity:0.892" fill="#e7d771" d="M 590.5,87.5 C 596.842,87.3338 603.175,87.5005 609.5,88C 620.513,94.3765 623.013,103.21 617,114.5C 615.062,117.106 612.562,118.939 609.5,120C 600.506,120.5 591.506,120.666 582.5,120.5C 583.117,118.771 584.117,117.271 585.5,116C 584.552,115.517 583.552,115.351 582.5,115.5C 582.527,113.801 583.194,112.467 584.5,111.5C 591.841,111.666 599.174,111.5 606.5,111C 611.331,107.533 612.165,103.366 609,98.5C 608.25,97.8742 607.416,97.3742 606.5,97C 601.177,96.5006 595.844,96.334 590.5,96.5C 590.577,95.2502 591.244,94.4169 592.5,94C 590.714,93.8038 589.381,92.9705 588.5,91.5C 589.758,92.0164 590.758,91.3497 591.5,89.5C 591.137,88.8165 590.804,88.1499 590.5,87.5 Z"/></g>
<g><path style="opacity:0.904" fill="#e7d772" d="M 640.5,88.5 C 641.6,89.5585 642.934,90.3918 644.5,91C 642.729,93.1135 641.229,92.9468 640,90.5C 638.141,91.5791 636.641,92.9124 635.5,94.5C 633.246,93.8763 631.579,92.543 630.5,90.5C 631.267,89.828 631.934,88.9947 632.5,88C 630.068,86.9125 630.402,86.4125 633.5,86.5C 633.67,87.8221 633.337,88.9887 632.5,90C 634.277,92.152 635.777,91.9853 637,89.5C 637.333,89.8333 637.667,90.1667 638,90.5C 638.075,88.065 638.908,87.3984 640.5,88.5 Z"/></g>
<g><path style="opacity:0.876" fill="#e7d774" d="M 673.5,87.5 C 687.244,87.0771 693.744,93.7437 693,107.5C 691.664,113.501 688.164,117.668 682.5,120C 677.177,120.499 671.844,120.666 666.5,120.5C 663.961,119.093 664.294,117.927 667.5,117C 663.801,116.513 662.468,114.679 663.5,111.5C 668.844,111.666 674.177,111.499 679.5,111C 684.331,107.533 685.165,103.366 682,98.5C 681.25,97.8742 680.416,97.3742 679.5,97C 675.848,96.5014 672.182,96.3347 668.5,96.5C 668.413,93.4017 668.913,93.0684 670,95.5C 670.465,94.0692 671.299,92.9025 672.5,92C 671.419,90.2894 671.752,88.7894 673.5,87.5 Z"/></g>
<g><path style="opacity:0.712" fill="#e7d773" d="M 657.5,87.5 C 662.833,87.5 668.167,87.5 673.5,87.5C 671.752,88.7894 671.419,90.2894 672.5,92C 671.299,92.9025 670.465,94.0692 670,95.5C 668.913,93.0684 668.413,93.4017 668.5,96.5C 663.167,96.5 657.833,96.5 652.5,96.5C 653.145,95.1882 654.145,94.1882 655.5,93.5C 657.009,95.9148 658.676,96.0815 660.5,94C 659.747,92.513 658.914,92.3463 658,93.5C 657.667,92.1667 657.333,90.8333 657,89.5C 655.887,91.3293 654.387,92.1626 652.5,92C 653.445,89.5537 655.111,88.0537 657.5,87.5 Z"/></g>
<g><path style="opacity:0.853" fill="#e5d77c" d="M 864.5,77.5 C 866.414,78.1847 868.414,78.6847 870.5,79C 866.016,79.8847 865.682,81.0514 869.5,82.5C 869.5,82.8333 869.5,83.1667 869.5,83.5C 868.448,83.3505 867.448,83.5172 866.5,84C 866.833,84.3333 867.167,84.6667 867.5,85C 866.531,86.7583 865.364,87.2583 864,86.5C 863.544,87.7441 864.044,88.5774 865.5,89C 864.167,90.3333 862.833,91.6667 861.5,93C 862.025,93.6924 862.692,94.1924 863.5,94.5C 865.519,92.5354 867.519,92.3688 869.5,94C 867.926,94.3357 866.592,95.1691 865.5,96.5C 866.651,97.731 867.817,97.731 869,96.5C 869.595,97.8989 869.428,99.2322 868.5,100.5C 868.957,101.298 869.624,101.631 870.5,101.5C 870.5,101.833 870.5,102.167 870.5,102.5C 868.251,101.769 866.084,100.769 864,99.5C 863.5,99.8333 863,100.167 862.5,100.5C 863.365,100.564 864.365,100.897 865.5,101.5C 866.583,102.365 866.749,103.365 866,104.5C 862.524,101.814 862.024,102.147 864.5,105.5C 863.632,107.796 862.298,108.463 860.5,107.5C 860.334,101.491 860.501,95.4908 861,89.5C 861.267,85.2017 862.434,81.2017 864.5,77.5 Z"/></g>
<g><path style="opacity:0.741" fill="#e8d770" d="M 587.5,96.5 C 585.833,96.5 584.167,96.5 582.5,96.5C 582.586,95.5041 582.252,94.6708 581.5,94C 584.413,92.283 586.413,93.1163 587.5,96.5 Z"/></g>
<g><path style="opacity:0.726" fill="#ebd65d" d="M 143.5,99.5 C 143.5,98.8333 143.833,98.5 144.5,98.5C 145.583,98.4606 146.583,98.1272 147.5,97.5C 148.696,97.8457 148.696,98.3457 147.5,99C 146.207,99.49 144.873,99.6567 143.5,99.5 Z"/></g>
<g><path style="opacity:0.259" fill="#ebd65d" d="M 143.5,100.5 C 144.239,100.369 144.906,100.536 145.5,101C 143.714,101.785 142.214,102.951 141,104.5C 140.658,102.381 139.825,102.047 138.5,103.5C 139.605,101.777 141.272,100.777 143.5,100.5 Z"/></g>
<g><path style="opacity:0.851" fill="#e5d77c" d="M 870.5,102.5 C 870.5,108.5 870.5,114.5 870.5,120.5C 867.167,120.5 863.833,120.5 860.5,120.5C 860.5,116.167 860.5,111.833 860.5,107.5C 862.298,108.463 863.632,107.796 864.5,105.5C 862.024,102.147 862.524,101.814 866,104.5C 866.749,103.365 866.583,102.365 865.5,101.5C 864.365,100.897 863.365,100.564 862.5,100.5C 863,100.167 863.5,99.8333 864,99.5C 866.084,100.769 868.251,101.769 870.5,102.5 Z"/></g>
<g><path style="opacity:0.489" fill="#ebd65d" d="M 143.5,110.5 C 141.833,109.5 140.5,108.167 139.5,106.5C 141.112,105.548 142.612,105.214 144,105.5C 145.779,107.017 145.279,107.851 142.5,108C 144.619,108.342 144.953,109.175 143.5,110.5 Z"/></g>
<g><path style="opacity:0.896" fill="#ead663" d="M 275.5,111.5 C 284.5,111.5 293.5,111.5 302.5,111.5C 302.5,114.5 302.5,117.5 302.5,120.5C 295.167,120.5 287.833,120.5 280.5,120.5C 279.425,117.919 277.758,115.753 275.5,114C 276.598,113.23 276.598,112.397 275.5,111.5 Z"/></g>
<g><path style="opacity:0.893" fill="#e8d76f" d="M 584.5,111.5 C 583.194,112.467 582.527,113.801 582.5,115.5C 583.552,115.351 584.552,115.517 585.5,116C 584.117,117.271 583.117,118.771 582.5,120.5C 572.833,120.5 563.167,120.5 553.5,120.5C 553.5,117.5 553.5,114.5 553.5,111.5C 563.833,111.5 574.167,111.5 584.5,111.5 Z"/></g>
<g><path style="opacity:0.899" fill="#e7d772" d="M 638.5,111.5 C 637.909,112.151 637.243,112.818 636.5,113.5C 638.024,115.858 640.024,117.691 642.5,119C 641.944,119.383 641.611,119.883 641.5,120.5C 636.5,120.5 631.5,120.5 626.5,120.5C 626.5,117.5 626.5,114.5 626.5,111.5C 630.5,111.5 634.5,111.5 638.5,111.5 Z"/></g>
<g><path style="opacity:0.861" fill="#e7d773" d="M 638.5,111.5 C 642.5,111.5 646.5,111.5 650.5,111.5C 649.602,112.158 648.602,112.824 647.5,113.5C 648.641,114.425 648.641,115.259 647.5,116C 648.715,118.096 649.549,117.929 650,115.5C 651,116.5 652,117.5 653,118.5C 653.805,116.099 654.638,116.266 655.5,119C 654.584,119.278 653.918,119.778 653.5,120.5C 649.5,120.5 645.5,120.5 641.5,120.5C 641.611,119.883 641.944,119.383 642.5,119C 640.024,117.691 638.024,115.858 636.5,113.5C 637.243,112.818 637.909,112.151 638.5,111.5 Z"/></g>
<g><path style="opacity:0.912" fill="#e7d773" d="M 650.5,111.5 C 654.833,111.5 659.167,111.5 663.5,111.5C 662.468,114.679 663.801,116.513 667.5,117C 664.294,117.927 663.961,119.093 666.5,120.5C 662.167,120.5 657.833,120.5 653.5,120.5C 653.918,119.778 654.584,119.278 655.5,119C 654.638,116.266 653.805,116.099 653,118.5C 652,117.5 651,116.5 650,115.5C 649.549,117.929 648.715,118.096 647.5,116C 648.641,115.259 648.641,114.425 647.5,113.5C 648.602,112.824 649.602,112.158 650.5,111.5 Z"/></g>
<g><path style="opacity:1" fill="#e6d776" d="M 726.5,120.5 C 724.833,120.5 723.167,120.5 721.5,120.5C 721.5,118.5 721.5,116.5 721.5,114.5C 722.117,114.611 722.617,114.944 723,115.5C 723.149,112.721 723.983,112.221 725.5,114C 724.655,115.558 725.321,116.558 727.5,117C 726.663,118.011 726.33,119.178 726.5,120.5 Z"/></g>
<g><path style="opacity:0.549" fill="#ecd65e" d="M 130.5,135.5 C 131.167,135.5 131.5,135.833 131.5,136.5C 130.504,136.414 129.671,136.748 129,137.5C 128.472,136.184 128.972,135.517 130.5,135.5 Z"/></g>
<g><path style="opacity:0.396" fill="#ebd65e" d="M 138.5,143.5 C 142.334,144.727 143.334,147.06 141.5,150.5C 140.833,149.5 140.167,148.5 139.5,147.5C 139.631,146.761 139.464,146.094 139,145.5C 138.329,146.252 137.496,146.586 136.5,146.5C 137.167,145.5 137.833,144.5 138.5,143.5 Z"/></g>
<g><path style="opacity:0.708" fill="#ebd65e" d="M 136.5,146.5 C 136.541,150.243 135.874,150.41 134.5,147C 135.094,146.536 135.761,146.369 136.5,146.5 Z"/></g>
<g><path style="opacity:0.738" fill="#ebd65d" d="M 139.5,147.5 C 139.361,149.337 138.694,149.67 137.5,148.5C 137.957,147.702 138.624,147.369 139.5,147.5 Z"/></g>
<g><path style="opacity:0.932" fill="#ecd65e" d="M 129.5,150.5 C 132.001,150.511 132.168,151.178 130,152.5C 129.536,151.906 129.369,151.239 129.5,150.5 Z"/></g>
<g><path style="opacity:0.804" fill="#ebd65e" d="M 133.5,153.5 C 130.999,153.489 130.832,152.822 133,151.5C 133.464,152.094 133.631,152.761 133.5,153.5 Z"/></g>
</svg>
